<?xml version="1.0" encoding="utf-8"?>
<!-- Generator: Adobe Illustrator 23.0.5, SVG Export Plug-In . SVG Version: 6.00 Build 0)  -->
<svg version="1.1" id="Calque_1" xmlns="http://www.w3.org/2000/svg" xmlns:xlink="http://www.w3.org/1999/xlink" x="0px" y="0px"
	 viewBox="0 0 595.3 841.9" style="enable-background:new 0 0 595.3 841.9;" xml:space="preserve">
<style type="text/css">
	.st0{fill:#1D1D1B;stroke:#1D1D1B;stroke-miterlimit:10;}
</style>
<path class="st0" d="M440.9,212.8H161.1c-8,0-14.6-6.6-14.6-14.6v0c0-8,6.6-14.6,14.6-14.6h279.8c8,0,14.6,6.6,14.6,14.6v0
	C455.5,206.2,448.9,212.8,440.9,212.8z"/>
<path class="st0" d="M440.9,355.9H161.1c-8,0-14.6-6.6-14.6-14.6v0c0-8,6.6-14.6,14.6-14.6h279.8c8,0,14.6,6.6,14.6,14.6v0
	C455.5,349.3,448.9,355.9,440.9,355.9z"/>
<path class="st0" d="M440.9,284.3H161.1c-8,0-14.6-6.6-14.6-14.6v0c0-8,6.6-14.6,14.6-14.6h279.8c8,0,14.6,6.6,14.6,14.6v0
	C455.5,277.8,448.9,284.3,440.9,284.3z"/>
</svg>
