<svg id="Calque_1" data-name="Calque 1" xmlns="http://www.w3.org/2000/svg" viewBox="0 0 446.7 367.79"><defs><style>.cls-1,.cls-2{fill:red;}.cls-2{stroke:#fff;stroke-miterlimit:10;stroke-width:17px;}</style></defs><title>logo</title><path class="cls-1" d="M696.59,714.56c6.26-21.41.84-38.41-7.9-53.39-9.92-17-21.25-32.94-32.5-48.81C641,590.88,625,570.08,615.14,544.05c-5.73-15.11-7.93-30-6.19-44.7,2.46,6.21,3.84,11.83,6.59,16.24,11.08,17.76,22,35.74,34.07,52.53,14.89,20.66,31.35,39.76,46.27,60.39,11.13,15.38,19.72,32.87,22.5,53.84l2.5-.75c-1.34-10.61-1.76-21.59-4.21-31.75-5.53-23-17.91-40.74-33.11-55.67-27.62-27.14-52.18-57.45-69.51-94.78-6.43-13.86-10.17-29.58-15-44.54-.61-1.9-.26-4.3-.46-8.93,14.81,34.39,33.53,62,57.51,84.44,10.42,9.75,21.81,18.14,32.5,27.54,21.39,18.82,40.49,40,52,69.62-.4-2.78-.67-5.61-1.24-8.33-5.42-26-18.2-46.08-34.95-63.07-27.2-27.6-54.76-54.75-81.28-83.19a174.18,174.18,0,0,1-36.56-59.51,58.94,58.94,0,0,1-3.06-12.79c31.43,47.59,76.75,75.69,116.8,111.06,19.24,17,38.16,34.42,52.91,57.52-3-7.06-5.54-14.46-9-21.14C731.64,524,713.52,506.37,693,491.89c-26.93-19-53.39-38.69-76.39-63.71-16.19-17.63-30.23-37.14-37.36-62.83,4.31,5.17,8.58,10.38,12.93,15.51a284.6,284.6,0,0,0,82.66,67.28c29.39,15.8,54.36,37.77,72.5,69.08,13.84,23.88,19.72,49.91,13.58,80.4-6.53,32.45-15.76,63.46-34.1,90.61C719.09,699.66,709.89,709.08,696.59,714.56Z" transform="translate(-579.24 -365.35)"/><path class="cls-1" d="M908.58,719.61c-6.26-21.42-.84-38.41,7.9-53.4,9.92-17,21.25-32.93,32.5-48.8,15.23-21.49,31.18-42.28,41-68.32,5.73-15.1,7.93-30,6.19-44.69-2.46,6.2-3.84,11.82-6.59,16.23-11.08,17.77-22,35.75-34.07,52.53-14.89,20.67-31.35,39.77-46.27,60.4-11.12,15.38-19.72,32.86-22.5,53.83l-2.5-.74c1.34-10.61,1.76-21.6,4.21-31.76,5.53-23,17.92-40.73,33.11-55.67,27.62-27.14,52.18-57.45,69.51-94.78,6.43-13.86,10.17-29.58,15-44.53.61-1.91.26-4.3.46-8.94-14.81,34.4-33.53,62-57.51,84.45-10.42,9.74-21.81,18.14-32.5,27.54-21.39,18.81-40.49,40-52,69.62.4-2.78.67-5.62,1.24-8.34,5.42-26,18.2-46.08,35-63.07C927.9,533.58,955.46,506.42,982,478a174.08,174.08,0,0,0,36.56-59.51,58.8,58.8,0,0,0,3.06-12.79c-31.43,47.6-76.75,75.7-116.8,111.06-19.23,17-38.16,34.42-52.91,57.53,3-7.07,5.54-14.46,9-21.14,12.61-24.13,30.73-41.72,51.26-56.2,26.94-19,53.39-38.68,76.39-63.71,16.2-17.62,30.23-37.13,37.36-62.83-4.31,5.18-8.58,10.39-12.93,15.51a284.47,284.47,0,0,1-82.66,67.29C901,469,876,491,857.84,522.27c-13.84,23.88-19.72,49.9-13.58,80.4,6.53,32.45,15.76,63.45,34.1,90.6C886.08,704.71,895.28,714.12,908.58,719.61Z" transform="translate(-579.24 -365.35)"/><path class="cls-2" d="M654.1,724.4,767.31,424.72l59.47-1.14L951.47,718.65l-66.91,1.29L798.77,513.36,721,723.1Z" transform="translate(-579.24 -365.35)"/></svg>